<?xml version="1.0" encoding="UTF-8"?>
<svg width="270px" height="30px" viewBox="0 0 270 30" version="1.1" xmlns="http://www.w3.org/2000/svg" xmlns:xlink="http://www.w3.org/1999/xlink">
    <title>masthead-black</title>
    <defs>
        <polygon id="path-1" points="0 0 26 0 26 30 0 30"></polygon>
    </defs>
    <g id="Page-1" stroke="none" stroke-width="1" fill="none" fill-rule="evenodd">
        <g id="Artboard" transform="translate(-387, -153)">
            <g id="masthead-black" transform="translate(387, 153)">
                <g id="Group-3">
                    <mask id="mask-2" fill="white">
                        <use xlink:href="#path-1"></use>
                    </mask>
                    <g id="Clip-2"></g>
                    <path d="M4.52045087,14.8937605 C4.28597783,16.3817012 4.26992085,17.7622126 4.39528879,18.4960281 C4.39817081,18.5056701 4.61747893,17.2358704 5.34196427,16.5209285 C5.97340147,15.8976196 6.77789722,15.7757615 7.06321735,15.785677 C7.06321735,15.7818476 7.20642638,15.2989968 7.18611499,15.2976976 L4.52045087,14.8937605 Z M13.498703,10.4522312 L13.5837912,6.88155648 C13.5561375,6.90945665 12.7521907,7.03069931 12.0697692,7.2220343 L12.7949407,10.6008954 C12.8227317,10.6148454 13.4903314,10.4526415 13.498703,10.4522312 L13.498703,10.4522312 Z M22.4580847,16.2270878 C21.4727764,13.8162532 19.4520675,12.192436 16.7527112,11.7174492 C15.3223364,11.4019995 13.8138726,11.4108209 12.4671451,11.894629 C10.4817753,12.6066304 9.19694263,14.0257096 8.34516801,15.9494537 C6.92426274,19.1571527 8.93241422,21.604914 8.93241422,24.2160417 C9.01173843,25.1656732 8.4598313,27.0699966 8.53901827,27.0592605 C11.114928,26.7046958 12.8565611,25.8857438 15.0805897,25.4909017 C16.5942,26.8088428 21.770997,29.8440804 22.9009553,30.0000109 C22.9793189,30.010319 21.5901844,25.5050569 21.8678878,20.5402626 C20.5571169,20.75095 18.8677033,20.1971179 17.8837674,19.1186532 C19.1913818,17.2460594 23.9334739,17.4525754 23.2450138,22.451903 C23.2344464,22.5295858 26.0498384,23.0034784 25.9993344,22.9416604 C24.2287438,20.7851413 23.4887505,18.7497282 22.4580847,16.2270878 L22.4580847,16.2270878 Z M12.1969213,10.7891531 L11.2807129,7.49816392 C10.769154,7.64703321 10.0783609,7.94176295 9.91573254,8.05076509 L11.4299604,11.0474348 C12.1229494,10.8127452 12.1904024,10.7826568 12.1969213,10.7891531 L12.1969213,10.7891531 Z M4.69124496,14.0863652 L7.50595077,14.6175625 C7.58362811,14.4190473 7.67811725,14.2444661 7.79374121,14.018803 L5.05362487,12.959759 C4.8832425,13.2999633 4.75499253,13.8100304 4.69124496,14.0863652 L4.69124496,14.0863652 Z M10.8704365,11.322949 L9.2547203,8.39076422 C8.63645805,8.68816089 8.24162109,9.00737166 8.06067131,9.13470038 L10.231657,11.6967293 C10.23598,11.7270912 10.8567126,11.3505757 10.8704365,11.322949 L10.8704365,11.322949 Z M3.34067475,15.7227649 C3.57885325,12.3989519 5.88399019,9.30367421 8.74288699,7.56182828 C13.0305117,5.03022974 18.1332682,5.28468203 22.0246149,7.06933557 C22.8191608,5.40736072 24.3817655,2.06460576 24.3817655,2.06460576 C14.0238485,-3.44342124 3.62510283,3.19825533 1.22129096,8.80413807 C-1.41088681,14.94368 1.31255498,19.840912 1.65661346,21.8154645 C2.5242392,26.7960552 0.317983049,27.880606 0,28.2761319 C1.42927685,28.1968079 2.28496279,27.1677156 2.99929243,25.9802488 C3.55538536,24.9522506 3.82965774,23.7666985 3.90898196,22.5803942 C4.22675915,20.3641086 3.2608702,17.9387769 3.34067475,15.7227649 L3.34067475,15.7227649 Z M14.4369382,6.77542642 L14.3300976,10.3884985 C14.480992,10.3907551 14.7099755,10.4256303 14.7142299,10.4095604 C14.7569112,10.237099 14.8978558,8.99909735 15.9565184,8.09623963 C17.1340987,7.09169674 18.682156,7.19126205 18.6660991,7.18189361 C17.1241489,6.71196721 15.5345081,6.67880157 14.4369382,6.77542642 L14.4369382,6.77542642 Z M5.45875476,12.2159596 L8.16716887,13.5762981 C8.17478564,13.5676818 8.60722611,13.0182947 8.61504874,13.0236969 L6.10419036,11.142692 C5.84288707,11.4722286 5.62954885,11.8336316 5.45875476,12.2159596 L5.45875476,12.2159596 Z M9.66005605,12.0462336 L7.48474732,9.58103472 C6.99411746,10.0056233 6.84514439,10.1969583 6.5463062,10.5587032 L9.10197316,12.5519242 C9.11576569,12.5377689 9.66005605,12.0462336 9.66005605,12.0462336 L9.66005605,12.0462336 Z" id="Fill-1" fill="#000000" mask="url(#mask-2)"></path>
                </g>
                <text id="MICHIGAN-STATE-UNIVE" font-family="Metropolis-Bold, Metropolis" font-size="15" font-weight="bold" letter-spacing="0.5" fill="#135846">
                    <tspan x="31" y="22">MICHIGAN STATE </tspan>
                    <tspan x="171.865" y="22" font-family="Metropolis-Light, Metropolis" font-weight="300">UNIVERSITY </tspan>
                </text>
            </g>
        </g>
    </g>
</svg>