<svg xmlns="http://www.w3.org/2000/svg" xml:space="preserve" style="enable-background:new 0 0 179.99 42.47" viewBox="0 0 179.99 42.47"><switch><g><path d="m13.63 17.05-3.07-3.49c-.69.6-.9.87-1.32 1.38l3.6 2.82c.02-.01.79-.71.79-.71zm58.54 4.94c1.34 0 2.78-.29 4.14-1.1 0 0 .18-2.54.15-2.47-1.07 2.35-2.91 2.63-3.68 2.63-3.36 0-4.48-2.9-4.48-5.25 0-2.76 1.58-4.91 4.36-4.91.78 0 2.69.24 3.68 2.63.03.07-.15-2.66-.15-2.66a8.43 8.43 0 0 0-3.83-.89c-4.14 0-6.25 3.05-6.25 6.06 0 3.64 2.85 5.96 6.06 5.96zm19.28-.18h2.95c-.28-.15-.42-.4-.42-.77V10.91c0-.39.15-.63.42-.77h-2.95c.26.14.42.38.42.77v10.13c.01.38-.16.62-.42.77zm-12.73 0h2.95c-.28-.15-.42-.4-.42-.77v-5.25h5.06v5.25c0 .38-.16.62-.43.77h2.95a.825.825 0 0 1-.46-.77V10.91c0-.39.18-.63.46-.77h-2.95c.26.14.43.38.43.77v4.03h-5.06v-4.03c0-.39.15-.63.42-.77h-2.95c.26.14.42.38.42.77v10.13c0 .38-.16.62-.42.77zm-66.38-11.1c6.05-3.58 13.25-3.22 18.74-.7 1.12-2.35 3.32-7.09 3.32-7.09C19.79-4.87 5.12 4.53 1.73 12.46c-3.71 8.69.13 15.63.62 18.42C3.57 37.94.46 39.47.01 40.03c2.02-.12 3.23-1.57 4.23-3.25.79-1.45 1.17-3.13 1.28-4.81.45-3.14-.92-6.57-.8-9.71.33-4.7 3.59-9.08 7.62-11.55zm8.03-1.12-.15 5.11c.22 0 .53.05.54.03.06-.24.26-2 1.76-3.27 1.66-1.42 3.84-1.28 3.82-1.3-2.18-.66-4.42-.71-5.97-.57zm26.4 1.32v10.13c0 .38-.18.62-.42.77h1.81a.825.825 0 0 1-.46-.77v-8.82l.11.46 3.94 9.37 3.91-9.65.15-.39s-.03.19-.03.39v8.63c0 .38-.16.62-.42.77h2.91c-.26-.15-.42-.4-.42-.77V10.91c0-.39.16-.63.42-.77h-2.75l-3.14 7.88-3.26-7.88h-2.87c.26.14.52.45.52.77zm14.13 10.9h2.95c-.28-.15-.42-.4-.42-.77V10.91c0-.39.15-.63.42-.77H60.9c.26.14.42.38.42.77v10.13c.01.38-.15.62-.42.77zm41.87.18c1.3 0 3.62-.44 4.98-1.25-.08-.05-.26-.36-.26-.7V17.5c0-.4.18-.64.42-.79H105c.26.15.42.39.42.79v2.99c-.77.53-1.73.56-2.07.56-3.37 0-4.48-2.9-4.48-5.25 0-2.76 1.6-4.91 4.36-4.91.77 0 2.83.36 3.66 2.69l-.11-2.73c-1.29-.58-2.49-.89-3.83-.89-4.17 0-6.3 3.05-6.3 6.06.01 3.65 2.88 5.97 6.12 5.97zm49.11-.18h2.25c-.44-.21-.52-.44-.37-.86.03-.19.42-1.2.91-2.37h3.99c.46 1.17.88 2.21.93 2.39.11.36.03.6-.39.84h3.48c-.54-.29-.65-.48-.81-.84-.29-.65-4.63-11.19-4.63-11.19s-4.28 10.54-4.59 11.19c-.17.33-.31.52-.77.84zm4.74-8.32s.89 2.3 1.66 4.21h-3.29c.52-1.29 1.63-4.21 1.63-4.21zm5.63-2.37s1.4-.12 2.61-.12v10.04c0 .38-.16.62-.42.77h2.91a.868.868 0 0 1-.42-.77V11c1.19 0 2.67.12 2.67.12.39.04.62.4.76.69v-1.67h-8.92v1.67c.15-.3.42-.69.81-.69zm9.87 10.69h7l.34-1.97c-.6 1.08-1.25 1.05-2.67 1.08-.8.04-1.79-.03-2.12-.09v-5.04h2.46c.23 0 .5.26.59.5v-1.82c-.08.21-.36.48-.59.48h-2.46V11s2.28 0 2.77.03c.62.03.96.17 1.27.62l-.05-1.51h-6.55c.26.14.49.38.49.77v10.13c.01.41-.2.6-.48.77zm-26.85-10.69s1.4-.12 2.6-.12v10.04c0 .38-.16.62-.42.77h2.91a.868.868 0 0 1-.42-.77V11c1.19 0 2.67.12 2.67.12.39.04.62.4.77.69v-1.67h-8.92v1.67c.14-.3.42-.69.81-.69zm-24.64-.32c.31.4.29.41.29 1.08v9.16c0 .38-.18.62-.43.77h1.81a.825.825 0 0 1-.46-.77v-8.6c0 .14 7.82 9.85 7.82 9.85V10.91c0-.39.18-.63.42-.77h-1.81c.26.14.42.38.42.77v6.78l-6.01-7.55h-2.8c.36.21.59.45.75.66zm18.79 10.29c-1.69 0-2.67-1.61-2.98-2.83l.08 2.9c.57.29 1.64.82 3.13.82 2 0 3.8-1.46 3.8-3.6 0-2.39-1.58-2.95-3.09-3.71-1.53-.74-2.23-1.13-2.23-2.18 0-.74.49-1.65 1.72-1.65 1.57 0 2.49 1.37 2.72 2.28l-.08-2.54c-.83-.51-1.91-.63-2.46-.63-1.48 0-3.55.93-3.55 3.26 0 1.3.65 2.23 2.15 3.11 1.48.84 2.9 1.06 2.9 2.71-.01.85-.5 2.06-2.11 2.06zm-28.85-.13c.03-.19.42-1.2.91-2.37h3.99c.46 1.17.88 2.21.93 2.39.11.36.03.6-.39.84h3.48c-.54-.29-.65-.48-.81-.84-.29-.65-4.62-11.19-4.62-11.19s-4.28 10.54-4.59 11.19c-.16.33-.31.52-.77.84h2.25c-.45-.21-.53-.45-.38-.86zm2.87-7.47s.89 2.3 1.66 4.21h-3.29c.52-1.29 1.63-4.21 1.63-4.21zM80.56 29.53h-2.12c.19.1.3.27.3.56v7.29a.6.6 0 0 1-.3.55h2.12c-.2-.11-.3-.28-.3-.55v-7.29c0-.29.1-.47.3-.56zm44.52 7.9c-.41-.49-1.82-2.84-1.82-2.84-.17-.27-.53-.84-1.32-.93.83-.06 1.98-.73 1.98-2.06 0-.83-.55-2.08-2.98-2.08h-2.53c.19.1.31.27.31.56v7.29c0 .27-.12.44-.31.55h2.12a.587.587 0 0 1-.33-.55V34s.38-.03.52-.03c.5 0 .77.53 1.08 1.03.42.69.94 1.59 1.46 2.37.21.3.6.58 1.05.58l1.52-.02c-.01 0-.53-.2-.75-.5zm-4.36-4.04c-.2 0-.53-.03-.53-.03v-3.23s.33-.02.68-.02c1.16 0 1.49.99 1.49 1.56.01 1.25-.84 1.72-1.64 1.72zm15.74-.6c-1.1-.53-1.61-.81-1.61-1.57 0-.53.35-1.19 1.24-1.19 1.13 0 1.79.99 1.96 1.65l-.05-1.83c-.6-.37-1.37-.46-1.77-.46-1.07 0-2.56.67-2.56 2.35 0 .94.47 1.61 1.55 2.24 1.07.61 2.09.77 2.09 1.95 0 .61-.35 1.48-1.51 1.48-1.22 0-1.92-1.16-2.15-2.04l.06 2.09c.41.21 1.18.59 2.25.59 1.44 0 2.73-1.05 2.73-2.6 0-1.71-1.14-2.12-2.23-2.66zm-28.76 4.5c-.58.02-1.29-.03-1.52-.06v-3.64h1.77c.17 0 .36.19.42.36v-1.31c-.06.15-.26.35-.42.35h-1.77v-2.84s1.64 0 1.99.03c.45.02.69.12.92.44l-.04-1.09h-4.71c.19.1.35.27.35.56v7.29c0 .3-.15.43-.35.55h5.04l.25-1.42c-.44.78-.91.75-1.93.78zm-12.85-7.15c-.01.09-1.88 5.26-1.88 5.26s-1.96-5.08-1.98-5.19c-.08-.3-.06-.56.25-.68h-2.59c.35.15.49.34.63.59.22.46 3.28 8.07 3.28 8.07s2.83-7.59 3.03-8.07c.12-.3.14-.38.44-.59H94.6c.31.12.36.29.25.61zm63.9.58c.11-.21.3-.49.59-.49 0 0 1.01-.09 1.88-.09v7.23c0 .27-.12.44-.31.55h2.1a.607.607 0 0 1-.31-.55v-7.23c.86 0 1.92.09 1.92.09.28.02.45.28.55.49v-1.2h-6.42v1.2zm19.57-1.19c.32.09.41.34.24.62l-1.55 3.19-1.65-3.04c-.3-.58-.1-.64.19-.76h-2.65c.31.17.44.3.61.59l2.3 3.97v3.29c0 .3-.22.44-.4.55h2.34c-.18-.11-.41-.28-.41-.55v-3.34l1.88-3.76c.14-.28.41-.63.78-.75h-1.68zm-28.35 0h-2.12c.18.1.3.27.3.56v7.29a.6.6 0 0 1-.3.55h2.12c-.2-.11-.31-.28-.31-.55v-7.29c0-.29.11-.47.31-.56zm-81.86.55v4.88l-4.33-5.44h-2.02c.25.15.41.32.53.47.22.28.21.3.21.78v6.6c0 .27-.13.44-.3.55h1.3a.587.587 0 0 1-.33-.55v-6.2c0 .1 5.63 7.1 5.63 7.1v-8.19c0-.29.13-.46.3-.56h-1.3c.19.1.31.28.31.56zm-50.9-14.8-1.29-4.67c-.72.21-1.7.63-1.93.78l2.14 4.24c1.09-.36 1.08-.37 1.08-.35zm1.84-.48.12-5.05c-.04.04-1.17.21-2.14.48l1.02 4.78c.05.02.99-.21 1-.21zm32.93 15.28.02 5.08c0 1.22-.5 2.19-1.9 2.19-1.53 0-1.81-1.22-1.81-2.09v-5.18c0-.29.18-.46.36-.56H46.4c.19.1.38.27.38.56v5.14c0 2.19 1.75 2.83 3.12 2.83 1.6 0 2.78-.82 2.78-2.92l.03-5.05c0-.29.13-.46.31-.56h-1.36c.18.1.32.28.32.56zM7.7 17.3l3.82 1.93c.01-.02.62-.79.63-.78l-3.54-2.66c-.36.45-.67.96-.91 1.51zm7.64-1.27-2.28-4.15c-.87.42-1.43.87-1.68 1.05l3.06 3.63c0 .04.88-.49.9-.53zm-8.96 5.06c-.33 2.1-.36 4.06-.18 5.1 0 .01.31-1.78 1.34-2.79.89-.88 2.02-1.06 2.43-1.04 0 0 .2-.69.17-.69l-3.76-.58zm173.37 3.75H46.22v.9h133.53v-.9zM23.64 16.59c-2.02-.45-4.15-.44-6.04.25-2.8 1.01-4.62 3.02-5.81 5.74-2.01 4.54.83 8.01.83 11.7.11 1.35-.67 4.04-.55 4.02 3.63-.5 6.09-1.66 9.23-2.22 2.13 1.86 9.44 6.16 11.03 6.38.11.01-1.85-6.37-1.46-13.39-1.85.3-4.23-.49-5.62-2.01 1.85-2.65 8.54-2.36 7.56 4.72-.01.11 3.96.78 3.89.69-2.5-3.05-3.54-5.94-4.99-9.51-1.41-3.4-4.26-5.7-8.07-6.37zM6.62 19.94l3.97.75c.11-.29.24-.53.41-.85l-3.86-1.5c-.25.49-.43 1.21-.52 1.6z" style="fill:#18453b"/></g></switch></svg>